HIERARCHY
ROOT Hips
{
    OFFSET 0.000000 97.120003 0.000000
    CHANNELS 6 Xposition Yposition Zposition Yrotation Xrotation Zrotation
    JOINT RightUpLeg
    {
        OFFSET -11.000000 -0.000000 0.000000
        CHANNELS 3 Yrotation Xrotation Zrotation
        JOINT RightLeg
        {
            OFFSET 0.000000 -45.062000 0.000000
            CHANNELS 3 Yrotation Xrotation Zrotation
            JOINT RightFoot
            {
                OFFSET 0.000000 -42.057999 0.000000
                CHANNELS 3 Yrotation Xrotation Zrotation
                End Site
                {
                    OFFSET 0.000000 -10.000000 15.120000
                }
            }
        }
    }
    JOINT LeftUpLeg
    {
        OFFSET 11.000000 -0.000000 0.000000
        CHANNELS 3 Yrotation Xrotation Zrotation
        JOINT LeftLeg
        {
            OFFSET 0.000000 -45.062000 0.000000
            CHANNELS 3 Yrotation Xrotation Zrotation
            JOINT LeftFoot
            {
                OFFSET 0.000000 -42.057999 0.000000
                CHANNELS 3 Yrotation Xrotation Zrotation
                End Site
                {
                    OFFSET 0.000000 -10.000000 15.120000
                }
            }
        }
    }
    JOINT Spine
    {
        OFFSET 0.000000 8.120000 0.000000
        CHANNELS 3 Yrotation Xrotation Zrotation
        JOINT Spine1
        {
            OFFSET 0.000000 17.980000 0.000000
            CHANNELS 3 Yrotation Xrotation Zrotation
            JOINT Spine2
            {
                OFFSET 0.000000 12.760000 0.000000
                CHANNELS 3 Yrotation Xrotation Zrotation
                JOINT Neck
                {
                    OFFSET 0.000000 19.139999 0.000000
                    CHANNELS 3 Yrotation Xrotation Zrotation
                    JOINT Neck1
                    {
                        OFFSET 0.000000 4.250000 0.000000
                        CHANNELS 3 Yrotation Xrotation Zrotation
                        JOINT Head
                        {
                            OFFSET 0.000000 4.250000 0.000000
                            CHANNELS 3 Yrotation Xrotation Zrotation
                            End Site
                            {
                                OFFSET 0.000000 19.120001 0.000000
                            }
                        }
                    }
                }
                JOINT RightShoulder
                {
                    OFFSET -2.900000 13.340000 0.000000
                    CHANNELS 3 Yrotation Xrotation Zrotation
                    JOINT RightArm
                    {
                        OFFSET -16.100000 0.000000 0.000000
                        CHANNELS 3 Yrotation Xrotation Zrotation
                        JOINT RightForeArm
                        {
                            OFFSET -28.000000 0.000000 0.000000
                            CHANNELS 3 Yrotation Xrotation Zrotation
                            JOINT RightHand
                            {
                                OFFSET -26.000000 0.000000 0.000000
                                CHANNELS 3 Yrotation Xrotation Zrotation
                                JOINT RightHandThumb1
                                {
                                    OFFSET -1.937000 -0.484000 2.518000
                                    CHANNELS 3 Yrotation Xrotation Zrotation
                                    JOINT RightHandThumb2
                                    {
                                        OFFSET -3.872000 0.000000 0.000000
                                        CHANNELS 3 Yrotation Xrotation Zrotation
                                        JOINT RightHandThumb3
                                        {
                                            OFFSET -2.690000 0.000000 0.000000
                                            CHANNELS 3 Yrotation Xrotation Zrotation
                                            End Site
                                            {
                                                OFFSET -2.537000 0.000000 0.000000
                                            }
                                        }
                                    }
                                }
                                JOINT RightInHandIndex
                                {
                                    OFFSET -3.389000 0.535000 2.080000
                                    CHANNELS 3 Yrotation Xrotation Zrotation
                                    JOINT RightHandIndex1
                                    {
                                        OFFSET -5.485000 -0.096000 1.051000
                                        CHANNELS 3 Yrotation Xrotation Zrotation
                                        JOINT RightHandIndex2
                                        {
                                            OFFSET -3.806000 0.000000 0.000000
                                            CHANNELS 3 Yrotation Xrotation Zrotation
                                            JOINT RightHandIndex3
                                            {
                                                OFFSET -2.158000 0.000000 0.000000
                                                CHANNELS 3 Yrotation Xrotation Zrotation
                                                End Site
                                                {
                                                    OFFSET -1.898000 0.000000 0.000000
                                                }
                                            }
                                        }
                                    }
                                }
                                JOINT RightInHandMiddle
                                {
                                    OFFSET -3.556000 0.544000 0.796000
                                    CHANNELS 3 Yrotation Xrotation Zrotation
                                    JOINT RightHandMiddle1
                                    {
                                        OFFSET -5.441000 -0.088000 0.330000
                                        CHANNELS 3 Yrotation Xrotation Zrotation
                                        JOINT RightHandMiddle2
                                        {
                                            OFFSET -4.153000 0.000000 0.000000
                                            CHANNELS 3 Yrotation Xrotation Zrotation
                                            JOINT RightHandMiddle3
                                            {
                                                OFFSET -2.603000 0.000000 0.000000
                                                CHANNELS 3 Yrotation Xrotation Zrotation
                                                End Site
                                                {
                                                    OFFSET -2.076000 0.000000 0.000000
                                                }
                                            }
                                        }
                                    }
                                }
                                JOINT RightInHandRing
                                {
                                    OFFSET -3.539000 0.566000 -0.136000
                                    CHANNELS 3 Yrotation Xrotation Zrotation
                                    JOINT RightHandRing1
                                    {
                                        OFFSET -4.873000 -0.023000 -0.504000
                                        CHANNELS 3 Yrotation Xrotation Zrotation
                                        JOINT RightHandRing2
                                        {
                                            OFFSET -3.619000 0.000000 0.000000
                                            CHANNELS 3 Yrotation Xrotation Zrotation
                                            JOINT RightHandRing3
                                            {
                                                OFFSET -2.511000 0.000000 0.000000
                                                CHANNELS 3 Yrotation Xrotation Zrotation
                                                End Site
                                                {
                                                    OFFSET -1.952000 0.000000 0.000000
                                                }
                                            }
                                        }
                                    }
                                }
                                JOINT RightInHandPinky
                                {
                                    OFFSET -3.324000 0.494000 -1.264000
                                    CHANNELS 3 Yrotation Xrotation Zrotation
                                    JOINT RightHandPinky1
                                    {
                                        OFFSET -4.354000 -0.023000 -1.147000
                                        CHANNELS 3 Yrotation Xrotation Zrotation
                                        JOINT RightHandPinky2
                                        {
                                            OFFSET -2.898000 0.000000 0.000000
                                            CHANNELS 3 Yrotation Xrotation Zrotation
                                            JOINT RightHandPinky3
                                            {
                                                OFFSET -1.831000 0.000000 0.000000
                                                CHANNELS 3 Yrotation Xrotation Zrotation
                                                End Site
                                                {
                                                    OFFSET -1.730000 0.000000 0.000000
                                                }
                                            }
                                        }
                                    }
                                }
                            }
                        }
                    }
                }
                JOINT LeftShoulder
                {
                    OFFSET 2.900000 13.340000 0.000000
                    CHANNELS 3 Yrotation Xrotation Zrotation
                    JOINT LeftArm
                    {
                        OFFSET 16.100000 0.000000 0.000000
                        CHANNELS 3 Yrotation Xrotation Zrotation
                        JOINT LeftForeArm
                        {
                            OFFSET 28.000000 0.000000 0.000000
                            CHANNELS 3 Yrotation Xrotation Zrotation
                            JOINT LeftHand
                            {
                                OFFSET 26.000000 0.000000 0.000000
                                CHANNELS 3 Yrotation Xrotation Zrotation
                                JOINT LeftHandThumb1
                                {
                                    OFFSET 1.937000 -0.484000 2.518000
                                    CHANNELS 3 Yrotation Xrotation Zrotation
                                    JOINT LeftHandThumb2
                                    {
                                        OFFSET 3.872000 0.000000 0.000000
                                        CHANNELS 3 Yrotation Xrotation Zrotation
                                        JOINT LeftHandThumb3
                                        {
                                            OFFSET 2.690000 0.000000 0.000000
                                            CHANNELS 3 Yrotation Xrotation Zrotation
                                            End Site
                                            {
                                                OFFSET 2.537000 0.000000 0.000000
                                            }
                                        }
                                    }
                                }
                                JOINT LeftInHandIndex
                                {
                                    OFFSET 3.389000 0.535000 2.080000
                                    CHANNELS 3 Yrotation Xrotation Zrotation
                                    JOINT LeftHandIndex1
                                    {
                                        OFFSET 5.485000 -0.096000 1.051000
                                        CHANNELS 3 Yrotation Xrotation Zrotation
                                        JOINT LeftHandIndex2
                                        {
                                            OFFSET 3.806000 0.000000 0.000000
                                            CHANNELS 3 Yrotation Xrotation Zrotation
                                            JOINT LeftHandIndex3
                                            {
                                                OFFSET 2.158000 0.000000 0.000000
                                                CHANNELS 3 Yrotation Xrotation Zrotation
                                                End Site
                                                {
                                                    OFFSET 1.898000 0.000000 0.000000
                                                }
                                            }
                                        }
                                    }
                                }
                                JOINT LeftInHandMiddle
                                {
                                    OFFSET 3.556000 0.544000 0.796000
                                    CHANNELS 3 Yrotation Xrotation Zrotation
                                    JOINT LeftHandMiddle1
                                    {
                                        OFFSET 5.441000 -0.088000 0.330000
                                        CHANNELS 3 Yrotation Xrotation Zrotation
                                        JOINT LeftHandMiddle2
                                        {
                                            OFFSET 4.153000 0.000000 0.000000
                                            CHANNELS 3 Yrotation Xrotation Zrotation
                                            JOINT LeftHandMiddle3
                                            {
                                                OFFSET 2.603000 0.000000 0.000000
                                                CHANNELS 3 Yrotation Xrotation Zrotation
                                                End Site
                                                {
                                                    OFFSET 2.076000 0.000000 0.000000
                                                }
                                            }
                                        }
                                    }
                                }
                                JOINT LeftInHandRing
                                {
                                    OFFSET 3.539000 0.566000 -0.136000
                                    CHANNELS 3 Yrotation Xrotation Zrotation
                                    JOINT LeftHandRing1
                                    {
                                        OFFSET 4.873000 -0.023000 -0.504000
                                        CHANNELS 3 Yrotation Xrotation Zrotation
                                        JOINT LeftHandRing2
                                        {
                                            OFFSET 3.619000 0.000000 0.000000
                                            CHANNELS 3 Yrotation Xrotation Zrotation
                                            JOINT LeftHandRing3
                                            {
                                                OFFSET 2.511000 0.000000 0.000000
                                                CHANNELS 3 Yrotation Xrotation Zrotation
                                                End Site
                                                {
                                                    OFFSET 1.952000 0.000000 0.000000
                                                }
                                            }
                                        }
                                    }
                                }
                                JOINT LeftInHandPinky
                                {
                                    OFFSET 3.324000 0.494000 -1.264000
                                    CHANNELS 3 Yrotation Xrotation Zrotation
                                    JOINT LeftHandPinky1
                                    {
                                        OFFSET 4.354000 -0.023000 -1.147000
                                        CHANNELS 3 Yrotation Xrotation Zrotation
                                        JOINT LeftHandPinky2
                                        {
                                            OFFSET 2.898000 0.000000 0.000000
                                            CHANNELS 3 Yrotation Xrotation Zrotation
                                            JOINT LeftHandPinky3
                                            {
                                                OFFSET 1.831000 0.000000 0.000000
                                                CHANNELS 3 Yrotation Xrotation Zrotation
                                                End Site
                                                {
                                                    OFFSET 1.730000 0.000000 0.000000
                                                }
                                            }
                                        }
                                    }
                                }
                            }
                        }
                    }
                }
            }
        }
    }
}
MOTION
Frames: 4
Frame Time: 0.011111
2.240926 92.538162 45.637901 18.730934 0.205861 5.783155 2.243401 -29.693968 -6.418206 178.174133 151.321686 173.131058 175.376740 178.957962 -176.816132 8.892217 8.002685 2.674539 165.105743 145.899567 -178.449142 164.209869 179.934921 177.019531 179.565796 174.877045 -178.190460 179.566330 174.966049 -176.957321 177.504074 176.170471 -176.224823 179.998917 176.329681 179.775238 179.998795 175.717880 179.767242 163.140671 177.015625 178.951248 1.109900 2.988926 -1.662668 10.165008 3.728991 72.957237 3.834803 0.040515 -1.383177 177.474426 -172.538162 -173.757874 38.353748 46.458538 6.015200 179.999985 179.999939 -169.379379 179.999985 179.999969 -172.926682 0.000002 -0.000000 0.000000 14.999990 0.000085 34.837734 179.999969 179.999954 -151.496384 179.999969 179.999985 -160.047485 0.000002 -0.000000 0.000000 179.999985 179.999908 -141.614670 179.999939 179.999954 -141.614670 179.999954 -179.999985 -154.435379 0.000002 -0.000000 0.000000 169.999985 179.999939 -146.180176 179.999954 179.999969 -146.180161 179.999969 180.000000 -157.475983 0.000002 -0.000000 0.000000 159.999939 179.999878 -161.965042 179.999847 179.999863 -152.947586 179.999878 179.999969 -161.983093 176.444870 -178.820923 173.826874 167.403275 175.148117 100.392365 1.818038 1.310959 5.944567 10.174172 2.077238 -15.817460 139.309052 126.575676 163.571289 179.999985 -179.999298 166.558655 179.999878 -179.999542 171.048065 0.000000 -0.000000 0.000000 164.999878 -179.999969 152.163773 179.999924 179.999985 157.224915 179.999954 179.999969 164.057449 0.000000 -0.000000 0.000000 180.000000 -179.999985 148.633972 179.999985 180.000000 148.633972 179.999985 179.999985 159.110229 0.000000 -0.000000 0.000000 9.999994 -0.000003 -27.202698 179.999985 -179.999985 152.797318 180.000000 -180.000000 161.883026 0.000000 -0.000000 0.000000 20.000006 0.000004 -24.000061 0.000006 0.000016 -36.000084 0.000013 -0.000004 -23.976042
1.980866 92.903107 46.214630 18.996845 0.644562 6.438511 2.351200 -29.359890 -6.670414 177.884949 152.124725 172.590652 175.389267 179.036377 -176.609940 8.055815 6.747405 2.005413 165.422562 144.371002 -178.710266 164.671677 177.984268 175.559143 179.507019 174.897278 -178.217346 179.507706 174.984848 -176.998703 177.237091 176.160187 -176.302612 179.998993 176.419922 179.850449 179.998886 175.823181 179.845154 163.108749 177.076202 179.016083 1.157227 3.020573 -1.696870 10.268106 3.341473 72.376686 4.301947 -0.023863 -1.142908 177.598953 -172.564133 -173.577408 37.932533 46.585056 5.421731 180.000000 179.999969 -169.515854 180.000000 179.999985 -173.017563 0.000002 -0.000000 0.000000 14.999995 0.000041 34.706337 179.999985 179.999985 -151.603912 179.999985 179.999985 -160.122726 0.000002 -0.000000 0.000000 180.000000 179.999969 -141.745728 179.999985 179.999985 -141.745728 179.999985 180.000000 -154.522644 0.000002 -0.000000 0.000000 170.000000 179.999969 -146.279709 179.999985 179.999985 -146.279709 179.999985 179.999985 -157.542282 0.000002 -0.000000 0.000000 159.999985 179.999939 -162.144592 179.999954 179.999939 -153.216919 179.999954 179.999985 -162.162476 176.501785 -178.796997 173.651077 166.921036 174.932251 100.874916 1.454758 2.520385 6.312150 9.832891 0.718283 -16.522684 141.491302 126.834549 166.522705 179.999985 -179.999771 166.967743 179.999969 -179.999847 171.320526 0.000000 -0.000000 0.000000 165.000000 179.999985 151.925491 180.000000 179.999985 157.029968 0.000004 -0.000003 -16.079020 0.000000 -0.000000 0.000000 0.000016 -0.000020 -31.400822 0.000010 -0.000029 -31.400835 180.000000 -179.999985 159.087051 0.000000 -0.000000 0.000000 10.000046 -0.000028 -27.235199 0.000029 -0.000049 -27.235201 0.000002 -0.000034 -18.138647 0.000000 -0.000000 0.000000 20.000004 -0.000001 -23.925407 180.000000 179.999985 144.111877 0.000001 -0.000003 -23.901482
1.736361 93.263252 46.741467 19.289297 1.076935 7.194396 3.028673 -29.094328 -7.427229 177.237946 152.676910 172.326828 175.356262 179.233459 -176.504349 7.116237 5.453320 1.150869 165.710724 142.771362 -178.958359 165.264465 176.139359 173.899521 179.442825 174.919144 -178.260513 179.443420 175.004974 -177.067047 176.949066 176.151749 -176.416321 179.999725 176.538635 179.900620 179.999664 175.961731 179.897110 163.003067 177.166809 179.070648 1.284240 3.115292 -1.731484 10.250583 2.885470 71.762711 4.794717 -0.072872 -0.899614 177.662735 -172.607834 -173.394165 37.482170 46.730862 4.744557 179.999832 179.999420 -169.685501 179.999817 179.999634 -173.130569 0.000000 -0.000000 0.000000 14.999991 0.000260 34.449150 179.999878 179.999832 -151.814316 179.999863 179.999939 -160.270020 0.000000 -0.000000 0.000000 0.000017 -0.000228 38.066608 0.000154 -0.000167 38.066551 0.000143 -0.000027 25.352348 0.000000 -0.000000 0.000000 170.000000 -179.999969 -146.467194 0.000021 -0.000012 33.532776 0.000021 -0.000006 22.332832 0.000000 -0.000000 0.000000 159.999969 179.999695 -162.424393 179.999817 179.999588 -153.636612 179.999756 179.999817 -162.441986 176.515427 -178.808472 173.420761 166.679398 174.808685 101.346863 1.162379 4.189020 6.876790 9.594054 -1.100594 -17.132986 143.516891 127.049042 169.349030 179.999725 -179.999176 167.415146 179.999725 -179.999496 171.618484 0.000000 -0.000000 0.000000 164.997406 179.997345 151.944839 179.999161 179.997101 157.045822 0.000243 0.002105 -16.067951 0.000000 -0.000000 0.000000 0.003768 -0.002302 -31.481775 0.001998 -0.003936 -31.481735 179.999756 -179.997086 159.033142 0.000000 -0.000000 0.000000 10.007847 -0.003868 -27.343142 0.005146 -0.007082 -27.343109 0.000846 -0.005765 -18.210514 0.000000 -0.000000 0.000000 20.004059 -0.001702 -23.848185 0.004493 -0.004805 -35.772182 0.000549 -0.004359 -23.824282
1.592002 93.607773 47.196243 19.666807 1.398262 8.008065 4.159390 -28.794128 -8.667560 176.365158 153.043182 172.348801 175.208572 179.392487 -176.463623 5.521777 4.011476 0.151699 167.119049 140.742371 -179.040817 166.048340 175.246811 172.171570 179.383560 174.924484 -178.319443 179.384232 175.009399 -177.161713 176.686310 176.137253 -176.563980 179.999802 176.585922 179.960846 179.999771 176.016891 179.959473 162.866959 177.197067 179.111145 1.237147 2.983155 -1.898355 10.049680 2.667571 71.370720 5.405176 0.053528 -0.609804 177.638641 -172.604370 -173.495041 37.224377 46.855724 4.229545 179.999893 179.999603 -169.854889 179.999878 179.999756 -173.243362 0.000000 -0.000002 -0.000003 14.999993 -0.000160 34.361717 0.000070 -0.000106 28.114130 0.000086 -0.000044 19.679903 0.000000 -0.000002 -0.000003 180.000000 -179.999252 -141.974930 0.000461 -0.000591 38.025051 0.000486 -0.000118 25.324717 0.000000 -0.000002 -0.000003 170.000000 -179.999405 -146.538849 0.000338 -0.000501 33.461163 0.000367 -0.000151 22.285128 0.000000 -0.000002 -0.000003 160.000000 -179.999893 -162.515503 0.000048 -0.000141 26.226742 0.000072 -0.000073 17.467024 176.312881 -178.844269 173.155823 166.479874 174.721710 101.916206 0.760177 4.768703 7.103090 9.327806 -2.940679 -16.520813 143.483627 127.170853 169.772827 0.000788 0.001164 -12.375745 0.000682 0.000652 -8.242253 0.000000 -0.000000 0.000000 164.998734 179.998779 152.340973 179.999557 179.998642 157.369873 0.000073 0.001001 -15.841064 0.000000 -0.000000 0.000000 0.006353 -0.003976 -31.605350 0.003284 -0.006726 -31.605354 179.999496 -179.995026 158.950836 0.000000 -0.000000 0.000000 10.011137 -0.005811 -27.613947 0.007081 -0.010368 -27.613920 0.000926 -0.008316 -18.390869 0.000000 -0.000000 0.000000 20.008104 -0.003696 -23.883469 0.008808 -0.010049 -35.825214 0.000783 -0.008861 -23.859612
